#!OML:ASF F:\VICON\USERDATA\INSTALL\rory3\rory3.ASF
:FULLY-SPECIFIED
:DEGREES
840
root -3.75192 19.713 8.63704 14.9642 -11.0141 -0.657075
lowerback -1.99978 0.991439 6.2421
upperback -5.10689 1.31671 -1.1233
thorax -4.01567 0.386852 -4.68694
lowerneck -17.2786 -3.47506 -7.84993
upperneck 22.7113 -3.8898 4.79823
head 10.38 -1.91212 2.47371
rclavicle 2.50096e-014 1.59028e-014
rhumerus -43.6601 16.5009 -89.9273
rradius 49.7619
rwrist 11.103
rhand -25.0586 -43.7208
rfingers 7.12502
rthumb 1.45501 -73.6956
lclavicle 2.50096e-014 1.59028e-014
lhumerus -47.3177 -13.1398 80.7312
lradius 69.0357
lwrist -2.09427
lhand -33.285 -42.1873
lfingers 7.12502
lthumb -6.48938 -12.3067
rfemur -22.1805 6.80002 23.1558
rtibia 20.1426
rfoot 18.8914 -5.808
rtoes -17.9733
lfemur -75.4962 42.0027 -6.69712
ltibia 138.978
lfoot -21.3191 -7.31037
ltoes -6.24199
841
root -3.73992 19.7582 8.65138 15.1894 -11.0531 -0.980681
lowerback -2.12157 0.99935 6.79516
upperback -5.18983 1.32736 -0.997377
thorax -4.03055 0.370259 -4.86599
lowerneck -17.1586 -3.43141 -7.86631
upperneck 22.7477 -3.7642 4.52654
head 10.357 -1.8901 2.39815
rclavicle -1.27346e-016 1.22253e-014
rhumerus -43.604 16.2829 -89.826
rradius 49.5849
rwrist 11.1723
rhand -25.5602 -43.5136
rfingers 7.12502
rthumb 0.970475 -73.4911
lclavicle -1.27346e-016 1.22253e-014
lhumerus -47.3504 -12.9303 80.8775
lradius 68.3412
lwrist -1.89378
lhand -33.3511 -42.2118
lfingers 7.12502
lthumb -6.55319 -12.3332
rfemur -22.6218 6.97043 23.1957
rtibia 20.4105
rfoot 17.9465 -5.53648
rtoes -17.7827
lfemur -75.135 43.2023 -5.90921
ltibia 139.642
lfoot -21.5746 -7.91922
ltoes -6.48783
842
root -3.73562 19.7843 8.65787 15.2713 -11.3172 -0.944215
lowerback -2.19434 1.01258 6.85488
upperback -5.22935 1.34093 -0.986886
thorax -4.02895 0.373677 -4.88781
lowerneck -15.5312 -3.15443 -8.67879
upperneck 21.4053 -3.50496 5.53601
head 9.58557 -1.73285 2.9238
rclavicle -1.19147e-014 -2.88238e-015
rhumerus -43.6137 16.0785 -89.8208
rradius 49.4253
rwrist 11.4567
rhand -25.7989 -43.672
rfingers 7.12502
rthumb 0.740006 -73.6505
lclavicle -1.19147e-014 -2.88238e-015
lhumerus -47.3496 -12.7135 80.9348
lradius 67.645
lwrist -1.68256
lhand -33.4703 -42.4138
lfingers 7.12502
lthumb -6.66819 -12.5388
rfemur -23.1308 7.41109 22.8114
rtibia 20.7556
rfoot 16.7691 -5.01521
rtoes -18.0796
lfemur -74.7205 43.9285 -5.52829
ltibia 140.186
lfoot -21.9332 -8.453
ltoes -5.10281
843
root -3.73584 19.8063 8.66668 15.1398 -11.6591 -0.686845
lowerback -1.94885 0.988127 6.59508
upperback -5.29622 1.32514 -1.03189
thorax -4.24199 0.3653 -4.79425
lowerneck -17.4931 -3.34139 -7.29713
upperneck 23.358 -3.55013 3.60311
head 10.5998 -1.85485 2.00431
rclavicle -2.62831e-014 1.37161e-014
rhumerus -43.6669 15.8772 -89.8711
rradius 49.2433
rwrist 11.6522
rhand -25.7571 -44.55
rfingers 7.12502
rthumb 0.780385 -74.5283
lclavicle -2.62831e-014 1.37161e-014
lhumerus -47.4985 -12.4072 80.945
lradius 67.0545
lwrist -1.59154
lhand -33.5672 -42.2983
lfingers 7.12502
lthumb -6.7618 -12.4263
rfemur -23.4747 7.92315 22.2113
rtibia 21.1763
rfoot 15.5804 -4.48999
rtoes -18.18
lfemur -73.7105 44.5188 -5.19135
ltibia 140.495
lfoot -22.3291 -8.67449
ltoes -5.60432
844
root -3.73582 19.818 8.67714 15.0894 -11.8624 -0.609787
lowerback -1.69057 0.943649 6.47357
upperback -5.46539 1.28973 -0.964677
thorax -4.57432 0.337401 -4.66236
lowerneck -15.1418 -2.76602 -8.46581
upperneck 21.432 -2.98985 5.27379
head 9.47273 -1.51126 2.86549
rclavicle -8.36759e-015 1.04362e-014
rhumerus -43.8547 15.7712 -89.8936
rradius 49.0293
rwrist 11.6374
rhand -25.688 -45.3315
rfingers 7.12502
rthumb 0.847109 -75.3095
lclavicle -8.36759e-015 1.04362e-014
lhumerus -47.8225 -12.0421 81.077
lradius 66.4123
lwrist -1.56185
lhand -33.7813 -42.4684
lfingers 7.12502
lthumb -6.96849 -12.6031
rfemur -23.9228 8.41047 21.816
rtibia 21.6561
rfoot 14.3476 -4.39837
rtoes -16.7737
lfemur -72.7549 45.0628 -4.6649
ltibia 140.724
lfoot -22.6435 -8.81854
ltoes -8.75221
845
root -3.73583 19.8131 8.68308 15.1705 -11.8864 -0.640242
lowerback -1.66802 0.859586 6.45978
upperback -5.53999 1.18553 -0.823348
thorax -4.68192 0.283363 -4.50586
lowerneck -16.1722 -2.87344 -7.60417
upperneck 22.4667 -2.9478 3.81591
head 9.99629 -1.58423 2.21927
rclavicle 4.77083e-015 -7.95139e-015
rhumerus -43.8253 15.5934 -89.7566
rradius 48.8176
rwrist 11.7995
rhand -25.6685 -45.4486
rfingers 7.12502
rthumb 0.865938 -75.4266
lclavicle 4.77083e-015 -7.95139e-015
lhumerus -47.888 -11.6051 81.2131
lradius 65.7199
lwrist -1.38361
lhand -33.8581 -42.9592
lfingers 7.12502
lthumb -7.04259 -13.0964
rfemur -24.5018 8.94962 21.4986
rtibia 22.0145
rfoot 12.9232 -4.76015
rtoes -14.3593
lfemur -72.3753 44.868 -4.33887
ltibia 140.899
lfoot -22.6363 -8.96547
ltoes -10.6595
846
root -3.73827 19.7955 8.69271 15.1352 -11.8716 -0.452974
lowerback -1.57661 0.734735 6.20378
upperback -5.50785 1.02309 -0.7563
thorax -4.72191 0.214534 -4.28935
lowerneck -16.6787 -2.83322 -7.21581
upperneck 22.7278 -2.80989 3.21812
head 10.1629 -1.55515 1.95989
rclavicle -1.85926e-014 -8.54774e-015
rhumerus -43.5848 15.1611 -89.5117
rradius 48.5481
rwrist 12.2501
rhand -25.8897 -45.7055
rfingers 7.12502
rthumb 0.652302 -75.6842
lclavicle -1.85926e-014 -8.54774e-015
lhumerus -47.6396 -11.149 81.2181
lradius 64.9755
lwrist -1.14241
lhand -33.6615 -43.1722
lfingers 7.12502
lthumb -6.85277 -13.3031
rfemur -24.9666 9.51742 20.9476
rtibia 22.3031
rfoot 11.2988 -5.07686
rtoes -13.2175
lfemur -71.8855 43.981 -4.30919
ltibia 140.898
lfoot -22.3223 -9.13383
ltoes -9.20111
847
root -3.74283 19.7767 8.71561 15.0601 -11.844 -0.191566
lowerback -1.60536 0.592294 5.8971
upperback -5.45905 0.826249 -0.722547
thorax -4.67797 0.133052 -4.07621
lowerneck -16.7492 -2.75644 -7.12569
upperneck 22.6049 -2.6899 3.10227
head 10.1219 -1.50352 1.91887
rclavicle -7.65321e-015 -6.55989e-015
rhumerus -43.4526 14.6976 -89.3233
rradius 48.3107
rwrist 12.488
rhand -26.2795 -46.0722
rfingers 7.12502
rthumb 0.275764 -76.0517
lclavicle -7.65321e-015 -6.55989e-015
lhumerus -47.4176 -10.6851 81.1759
lradius 64.2659
lwrist -0.917907
lhand -33.3706 -43.1279
lfingers 7.12502
lthumb -6.57201 -13.2498
rfemur -25.2536 9.8761 20.4064
rtibia 22.5507
rfoot 9.71299 -5.0654
rtoes -13.5499
lfemur -71.191 42.4962 -4.50328
ltibia 140.672
lfoot -21.903 -9.0742
ltoes -7.22447
848
root -3.74783 19.7442 8.72004 14.919 -11.8441 0.0110338
lowerback -1.46737 0.439882 5.6312
upperback -5.32213 0.626401 -0.663761
thorax -4.63435 0.0508371 -3.86118
lowerneck -17.2617 -2.79486 -6.812
upperneck 22.7555 -2.66686 2.60471
head 10.261 -1.52235 1.69006
rclavicle -9.64106e-015 1.64991e-014
rhumerus -43.115 14.3697 -89.1524
rradius 48.0565
rwrist 12.2716
rhand -26.4326 -46.071
rfingers 7.12502
rthumb 0.127882 -76.0507
lclavicle -9.64106e-015 1.64991e-014
lhumerus -47.1516 -10.2021 81.1883
lradius 63.7006
lwrist -0.419336
lhand -33.2 -42.9456
lfingers 7.12502
lthumb -6.40725 -13.0625
rfemur -25.5009 10.3101 19.9721
rtibia 22.7645
rfoot 8.38661 -4.91903
rtoes -14.3347
lfemur -70.9295 40.8377 -4.87301
ltibia 140.44
lfoot -21.5458 -8.82299
ltoes -6.937
849
root -3.74849 19.6982 8.72404 14.811 -11.7458 0.0858045
lowerback -1.26916 0.292068 5.58788
upperback -5.22736 0.44083 -0.590009
thorax -4.66739 -0.0368971 -3.75642
lowerneck -16.6514 -2.60316 -7.34488
upperneck 22.002 -2.46611 3.31951
head 9.88043 -1.38619 2.05868
rclavicle 1.07716e-014 -3.18055e-015
rhumerus -42.8145 13.9528 -88.934
rradius 47.6964
rwrist 12.1727
rhand -26.4068 -46.31
rfingers 7.12502
rthumb 0.152882 -76.2897
lclavicle 1.07716e-014 -3.18055e-015
lhumerus -46.9552 -9.86081 81.3075
lradius 63.0621
lwrist 0.263498
lhand -33.2164 -42.8816
lfingers 7.12502
lthumb -6.42309 -12.9989
rfemur -25.7371 10.6585 19.6869
rtibia 22.9126
rfoot 7.29128 -4.6514
rtoes -15.618
lfemur -70.7611 39.3522 -5.1281
ltibia 140.168
lfoot -21.499 -8.46655
ltoes -7.48167
